<svg
				xmlns="http://www.w3.org/2000/svg"
				fill="white"
				viewBox="0 0 105 15"
				height="40"
				width="130"
			>
				<path
					d="M12.4409 5.93152C10.9015 5.93152 9.64893 7.17659 9.64893 8.71051C9.64893 10.2444 10.9015 11.4895 12.4409 11.4895C13.9802 11.4895 15.2328 10.2444 15.2328 8.71051C15.2328 7.17659 13.9802 5.93152 12.4409 5.93152Z"
				/>
				<path
					d="M18.5324 2.94852H16.3391L15.8511 1.31499C15.6097 0.557987 15.2676 0.0151367 14.5432 0.0151367H10.3025C9.58312 0.0151367 9.17062 0.667553 8.99959 1.31499L8.51163 2.94852H6.13219C6.14728 2.90868 6.15735 2.86884 6.15735 2.82401V2.22638C6.15735 2.06203 6.02655 1.92756 5.86055 1.92756H2.38949C2.22349 1.92756 2.09269 2.06203 2.09269 2.22638V2.82401C2.09269 2.86884 2.10275 2.90868 2.12288 2.94852H1.90656C0.855187 2.94852 0 3.79517 0 4.84601V14.4729C0 14.7568 0.231404 14.9908 0.518143 14.9908H19.9158C20.2025 14.9908 20.4339 14.7568 20.4339 14.4729V4.84103C20.4339 3.79517 19.5788 2.94354 18.5274 2.94354L18.5324 2.94852ZM12.4405 14.0844C9.46239 14.0844 7.04272 11.674 7.04272 8.71568C7.04272 5.7574 9.46239 3.34196 12.4405 3.34196C15.4185 3.34196 17.8332 5.75242 17.8332 8.71568C17.8332 11.6789 15.4135 14.0844 12.4405 14.0844Z"
				/>
				<path
					d="M72.972 3.45127C70.1499 3.45127 68.8521 5.69239 68.8521 7.71937C68.8521 10.2244 70.4367 11.7932 73.2034 11.7932C74.3051 11.7932 75.3213 11.6289 76.1564 11.2852L75.8243 9.60191C75.1402 9.83101 74.4359 9.94555 73.5707 9.94555C72.3885 9.94555 71.3522 9.4525 71.2667 8.42159H76.5236C76.5588 8.2423 76.6091 7.8638 76.6091 7.44047C76.6091 5.45832 75.608 3.44629 72.972 3.44629V3.45127ZM71.2516 6.72331C71.317 6.0709 71.7547 5.10472 72.8362 5.10472C73.9882 5.10472 74.2548 6.1207 74.2548 6.72331H71.2516Z"
				/>
				<path
					d="M44.1218 5.38362C44.7909 5.38362 45.2386 5.49816 45.5404 5.62765L45.9429 3.77997C45.4096 3.58574 44.6752 3.47119 44.0061 3.47119C40.9677 3.47119 39.3328 5.38362 39.3328 7.70941C39.3328 10.2145 41.018 11.7982 43.654 11.7982C44.6198 11.7982 45.475 11.6339 45.9227 11.4197L45.6209 9.58697C45.2386 9.75132 44.7707 9.84595 44.1721 9.84595C42.9396 9.84595 41.9386 9.07898 41.9386 7.60482C41.9235 6.30995 42.7887 5.37864 44.1218 5.37864V5.38362Z"
				/>
				<path
					d="M50.4301 1.45447L47.945 2.12681V3.63085H46.8584V5.46359H47.945V8.73564C47.945 9.86616 48.1814 10.6331 48.6442 11.1062C49.0618 11.5146 49.7459 11.7935 50.5609 11.7935C51.2651 11.7935 51.8788 11.6939 52.1958 11.5794L52.1807 9.69683C51.9493 9.74663 51.7833 9.76157 51.4311 9.76157C50.6816 9.76157 50.4301 9.31833 50.4301 8.35713V5.46359H52.2461V3.63085H50.4301V1.45447Z"
				/>
				<path
					d="M36.8481 0.164429C36.0281 0.164429 35.4949 0.702299 35.4949 1.40452C35.4949 2.10674 36.013 2.64959 36.8129 2.64959H36.828C37.663 2.64959 38.1812 2.0918 38.1812 1.40452C38.1661 0.702299 37.663 0.164429 36.8481 0.164429Z"
				/>
				<path
					d="M30.9222 3.45117C29.735 3.45117 28.8044 3.90936 28.2007 4.74604H28.1655L28.0498 3.63544H25.8464C25.8816 4.38746 25.9118 5.27395 25.9118 6.31981V14.8759H28.4472V10.9017H28.4824C28.8496 11.4246 29.6193 11.818 30.6003 11.818C32.4163 11.818 34.3027 10.4435 34.3027 7.53002C34.3027 4.98012 32.703 3.45615 30.9172 3.45615L30.9222 3.45117ZM29.9865 9.89565C29.2521 9.89565 28.6686 9.38766 28.5025 8.72031C28.4673 8.55596 28.4522 8.39161 28.4522 8.19738V7.10172C28.4522 6.95231 28.4673 6.78796 28.5025 6.65847C28.6686 5.92139 29.3024 5.39846 30.0218 5.39846C31.1587 5.39846 31.7422 6.36463 31.7422 7.63959C31.7422 8.9992 31.0933 9.89565 29.9916 9.89565H29.9865Z"
				/>
				<path d="M38.1003 3.63074H35.5649V11.6291H38.1003V3.63074Z" />
				<path
					d="M61.4071 3.63074H58.8718V8.39188C58.8718 8.60604 58.8365 8.78533 58.7711 8.92975C58.6202 9.3232 58.2027 9.79632 57.5035 9.79632C56.603 9.79632 56.2207 9.0941 56.2207 7.9337V3.63074H53.6853V8.32714C53.6853 10.7974 54.8876 11.8133 56.5577 11.8133C58.0266 11.8133 58.7913 10.9966 59.1082 10.5035H59.1585L59.2742 11.634H61.4776C61.4423 10.9617 61.4122 10.1101 61.4122 9.06422V3.63074H61.4071Z"
				/>
				<path
					d="M83.9986 0.164429C83.1786 0.164429 82.6504 0.702299 82.6504 1.40452C82.6504 2.10674 83.1685 2.64959 83.9684 2.64959H83.9835C84.8185 2.64959 85.3367 2.0918 85.3367 1.40452C85.3166 0.702299 84.8185 0.164429 83.9986 0.164429Z"
				/>
				<path
					d="M104.025 7.44536C104.025 5.4632 103.024 3.45117 100.388 3.45117C97.5712 3.45117 96.2683 5.6923 96.2683 7.71927C96.2683 10.2243 97.8529 11.7931 100.625 11.7931C101.726 11.7931 102.743 11.6288 103.578 11.2851L103.246 9.60182C102.561 9.83091 101.862 9.94545 100.992 9.94545C99.8098 9.94545 98.7735 9.45241 98.693 8.42149H103.95C103.985 8.2422 104.03 7.8637 104.03 7.44037L104.025 7.44536ZM98.6729 6.72321C98.7383 6.0708 99.1709 5.10462 100.258 5.10462C101.409 5.10462 101.676 6.1206 101.676 6.72321H98.6729Z"
				/>
				<path d="M85.2514 3.63074H82.7161V11.6291H85.2514V3.63074Z" />
				<path
					d="M92.1083 3.45117C90.74 3.45117 89.925 4.21813 89.588 4.74604H89.5427L89.427 3.63544H87.2236C87.2588 4.35758 87.2941 5.18929 87.2941 6.18534V11.6338H89.8294V7.01705C89.8294 6.78796 89.8445 6.55887 89.9099 6.39452C90.0961 5.93633 90.5086 5.4632 91.2128 5.4632C92.1284 5.4632 92.4956 6.16542 92.4956 7.19634V11.6288H95.031V6.9025C95.031 4.54683 93.7784 3.45117 92.1083 3.45117Z"
				/>
				<path d="M80.6636 0H78.1282V11.6339H80.6636V0Z" />
				<path
					d="M65.3812 5.11957H65.3108L65.2101 3.63046H63.042C63.0923 4.31774 63.1074 5.0847 63.1074 6.26503V11.6338H65.6428V7.58978C65.6428 7.38061 65.6579 7.19634 65.6931 7.03697C65.8591 6.25009 66.4929 5.77696 67.4286 5.77696C67.7103 5.77696 67.9115 5.81182 68.1127 5.84171V3.50097C67.9316 3.46611 67.8159 3.45117 67.5795 3.45117C66.7797 3.45117 65.7937 3.93924 65.3762 5.11957H65.3812Z"
				/>
			</svg>